<svg width="26" height="26" viewBox="0 0 26 26" stroke="currentColor" fill="transparent" xmlns="http://www.w3.org/2000/svg">
<path d="M6.38776 3.06414C6.38776 1.92415 7.3119 1 8.4519 1H17.5481C18.6881 1 19.6122 1.92415 19.6122 3.06414V8.83673C19.6122 12.4886 16.6518 15.449 13 15.449V15.449C9.34816 15.449 6.38776 12.4886 6.38776 8.83674V3.06414Z" stroke-width="2" stroke-linejoin="round"/>
<path d="M7.36734 24.2303C7.36734 24.6554 7.71194 25 8.13702 25H17.863C18.2881 25 18.6326 24.6554 18.6326 24.2303V24.2303C18.6326 21.6798 16.5651 19.6122 14.0146 19.6122H11.9854C9.43492 19.6122 7.36734 21.6798 7.36734 24.2303V24.2303Z" stroke="currentColor" stroke-width="2" stroke-linejoin="round"/>
<path d="M6.38776 10.3061L6.38776 3.69388L2.57435 3.69388C1.70486 3.69388 1 4.39873 1 5.26822V5.26822C1 8.05058 3.25555 10.3061 6.0379 10.3061L6.38776 10.3061Z" stroke="currentColor" stroke-width="2" stroke-linejoin="round"/>
<path d="M19.6122 10.3061L19.6122 3.69388L23.4257 3.69388C24.2951 3.69388 25 4.39873 25 5.26822V5.26822C25 8.05058 22.7445 10.3061 19.9621 10.3061L19.6122 10.3061Z" stroke="currentColor" stroke-width="2" stroke-linejoin="round"/>
<path d="M13 15.449V19.7347" stroke="currentColor" stroke-width="2"/>
</svg> 
