<svg width="26" height="26" viewBox="0 0 26 26" fill="transparent" xmlns="http://www.w3.org/2000/svg">
<circle cx="13" cy="13" r="12" stroke="currentColor" stroke-width="2"/>
<path d="M8.71428 1.82758L13 4.16725V8.4212L8.71428 12.0371L10 17.3545L7.64285 19.9069L10 24.5862" stroke="currentColor" stroke-width="2"/>
<path d="M10 17.3545H13" stroke="currentColor" stroke-width="2"/>
<path d="M8.71429 12.037L4.64286 10.3355L3.35715 5.65613" stroke="currentColor" stroke-width="2"/>
<path d="M7.64285 19.9068L3.14285 19.4814" stroke="currentColor" stroke-width="2"/>
<path d="M4.64286 10.1228L1 13.7386" stroke="currentColor" stroke-width="2"/>
<path d="M17.2857 1.82758L13 4.16725V8.4212L17.2857 12.0371L16 17.3545L18.3571 19.9069L16 24.5862" stroke="currentColor" stroke-width="2"/>
<path d="M16 17.3545H13" stroke="currentColor" stroke-width="2"/>
<path d="M17.2857 12.037L21.3571 10.3355L22.6429 5.65613" stroke="currentColor" stroke-width="2"/>
<path d="M18.3571 19.9068L22.8571 19.4814" stroke="currentColor" stroke-width="2"/>
<path d="M21.3571 10.1228L25 13.7386" stroke="currentColor" stroke-width="2"/>
</svg>
